<svg width="29" height="29" viewBox="0 0 29 29" fill="none" xmlns="http://www.w3.org/2000/svg">
<path d="M14.5 1.44995C12.7079 1.44994 10.9594 2.00337 9.49374 3.03461C8.02803 4.06585 6.91655 5.52457 6.31123 7.21138C5.7059 8.8982 5.63627 10.7308 6.11185 12.4587C6.58743 14.1866 7.58502 15.7254 8.96825 16.8649C10.4937 18.125 11.6 19.4923 11.6 20.9612V21.895C11.5999 22.1386 11.6815 22.3752 11.8319 22.5669C11.9823 22.7586 12.1927 22.8942 12.4294 22.952C13.7898 23.2844 15.2102 23.2844 16.5706 22.952C16.8073 22.8942 17.0177 22.7586 17.1681 22.5669C17.3185 22.3752 17.4001 22.1386 17.4 21.895V20.9612C17.4 19.4923 18.5049 18.1235 20.0318 16.8649C21.415 15.7254 22.4126 14.1866 22.8881 12.4587C23.3637 10.7308 23.2941 8.8982 22.6888 7.21138C22.0835 5.52457 20.972 4.06585 19.5063 3.03461C18.0406 2.00337 16.2921 1.44994 14.5 1.44995ZM12.8514 25.2502C12.7102 25.2287 12.5661 25.2352 12.4274 25.2694C12.2887 25.3035 12.1582 25.3647 12.0431 25.4493C11.8107 25.6202 11.6558 25.8764 11.6123 26.1616C11.5689 26.4467 11.6405 26.7375 11.8114 26.9698C11.9823 27.2022 12.2385 27.3571 12.5237 27.4006C13.8337 27.5998 15.1663 27.5998 16.4764 27.4006C16.7615 27.3571 17.0177 27.2022 17.1886 26.9698C17.3595 26.7375 17.4311 26.4467 17.3877 26.1616C17.3442 25.8764 17.1893 25.6202 16.9569 25.4493C16.7245 25.2784 16.4338 25.2068 16.1487 25.2502C15.0558 25.4167 13.9442 25.4167 12.8514 25.2502Z" fill="white"/>
</svg>
