<svg xmlns="http://www.w3.org/2000/svg" width="25" height="25" viewBox="0 0 25 25" version="1.1">
	<path d="M 2.223 1.557 C 0.245 2.942, 0 3.984, 0 11 C -0 18.016, 0.245 19.058, 2.223 20.443 C 3.445 21.299, 5.807 22.014, 7.473 22.032 C 9.138 22.049, 11.374 22.724, 12.441 23.532 C 14.707 25.246, 18.328 25.430, 21.055 23.970 C 24.577 22.085, 26.014 17.651, 25.807 9.300 C 25.622 1.787, 25.602 1.726, 25.262 7.659 L 24.909 13.818 22.500 11.409 C 21.175 10.084, 19.170 9, 18.045 9 C 16.448 9, 16 8.355, 16 6.057 C 16 2.378, 12.859 -0, 8 -0 C 6.045 -0, 3.445 0.701, 2.223 1.557 M 6 1.683 C 5.175 1.945, 3.825 2.419, 3 2.738 C 2.175 3.057, 1.163 3.246, 0.750 3.159 C 0.337 3.071, 0 6.600, 0 11 C 0 15.400, 0.337 18.927, 0.750 18.839 C 1.163 18.750, 2.767 19.200, 4.315 19.839 C 8.059 21.383, 10.055 21.307, 9.416 19.643 C 9.130 18.896, 7.119 17.753, 4.948 17.102 C 2.776 16.452, 1 15.472, 1 14.925 C 1 14.278, 1.678 14.293, 2.934 14.965 C 5.717 16.454, 8.694 16.239, 9.362 14.500 C 9.791 13.380, 9.206 13, 7.050 13 C 3.115 13, 1 12.069, 1 10.336 C 1 9.102, 1.330 9.118, 3.223 10.443 C 6.077 12.443, 9.426 12.422, 12.535 10.385 C 16.068 8.070, 15.574 7.011, 11.539 8.249 C 7.623 9.451, 1.929 8.287, 1.213 6.138 C 0.863 5.090, 1.207 5.040, 2.819 5.903 C 7.618 8.472, 17.382 6.123, 13.762 3.271 C 12.088 1.951, 7.873 1.089, 6 1.683 M 14.242 11.034 C 9.095 13.102, 9.291 21.020, 14.538 23.015 C 19.906 25.055, 25.017 19.806, 22.952 14.375 C 22.252 12.533, 18.004 9.611, 16.685 10.063 C 16.583 10.098, 15.484 10.535, 14.242 11.034 M 15.445 14.174 C 14.961 15.698, 15.315 16.784, 16.627 17.808 C 18.267 19.087, 18.282 19.194, 16.750 18.666 C 14.792 17.991, 14.548 18.765, 16.015 21 C 16.891 22.333, 17.109 22.333, 17.985 21 C 19.444 18.777, 19.212 17.223, 17.250 16.080 C 15.615 15.128, 15.613 15.059, 17.219 15.030 C 18.330 15.011, 18.734 14.470, 18.362 13.500 C 17.537 11.352, 16.246 11.650, 15.445 14.174" stroke="none" fill="#000000" fill-rule="evenodd"/>
</svg>